<svg xmlns="http://www.w3.org/2000/svg" width="19.315" height="12.803" viewBox="0 0 19.315 12.803"><defs><style>.a{fill:#484848;}</style></defs><path class="a" d="M.072,15.737V5.2q0-.018.056-.348l6.314,5.3L.147,16.1a1.525,1.525,0,0,1-.075-.366ZM.91,4.123a.816.816,0,0,1,.317-.055h17a1.072,1.072,0,0,1,.335.055L12.234,9.445,11.4,10.1,9.739,11.439,8.081,10.1l-.838-.658ZM.929,16.816,7.28,10.835l2.459,1.957L12.2,10.835l6.351,5.981a.909.909,0,0,1-.317.055h-17a.857.857,0,0,1-.3-.055Zm12.107-6.658,6.3-5.3a1.074,1.074,0,0,1,.056.348V15.737a1.378,1.378,0,0,1-.056.366Z" transform="translate(-0.072 -4.068)"/></svg>