<svg xmlns="http://www.w3.org/2000/svg" xmlns:xlink="http://www.w3.org/1999/xlink" width="74.157" height="104" viewBox="0 0 74.157 104"><defs><style>.a{opacity:0.702;}.b{fill:#fff;}.c{fill:url(#c);}.d{fill:#989898;}.e{filter:url(#a);}</style><filter id="a" x="0" y="0" width="74.157" height="104" filterUnits="userSpaceOnUse"><feOffset dy="3" input="SourceAlpha"/><feGaussianBlur stdDeviation="5" result="b"/><feFlood flood-opacity="0.282"/><feComposite operator="in" in2="b"/><feComposite in="SourceGraphic"/></filter><linearGradient id="c" x1="0.5" x2="0.5" y2="1" gradientUnits="objectBoundingBox"><stop offset="0" stop-color="#ccc"/><stop offset="1" stop-color="#989898"/></linearGradient></defs><g class="a" transform="translate(-146 -4036.25)"><g class="e" transform="matrix(1, 0, 0, 1, 146, 4036.25)"><path class="b" d="M43.166,1.5H15.992A8.454,8.454,0,0,0,7.5,9.909V67.091A8.454,8.454,0,0,0,15.992,75.5H43.166a8.454,8.454,0,0,0,8.492-8.409V9.909A8.454,8.454,0,0,0,43.166,1.5Z" transform="translate(7.5 10.5)"/></g><path class="c" d="M43.166,1.5H15.992A8.454,8.454,0,0,0,7.5,9.909V67.091A8.454,8.454,0,0,0,15.992,75.5H43.166a8.454,8.454,0,0,0,8.492-8.409V9.909A8.454,8.454,0,0,0,43.166,1.5ZM29.579,72.136a5.046,5.046,0,1,1,5.1-5.045A5.064,5.064,0,0,1,29.579,72.136ZM44.864,58.682H14.293V11.591h30.57Z" transform="translate(153.5 4046.75)"/><circle class="d" cx="11" cy="11" r="11" transform="translate(173 4078)"/><path class="b" d="M.422.559,2.786.013a.549.549,0,0,1,.625.316L4.5,2.875a.544.544,0,0,1-.157.637L2.968,4.64A8.426,8.426,0,0,0,7,8.668L8.124,7.29a.545.545,0,0,1,.637-.157l2.546,1.091a.552.552,0,0,1,.318.627l-.546,2.364a.545.545,0,0,1-.532.423A10.547,10.547,0,0,1,0,1.091.545.545,0,0,1,.422.559Z" transform="translate(178.001 4083.181)"/></g></svg>
