<svg xmlns="http://www.w3.org/2000/svg" xmlns:xlink="http://www.w3.org/1999/xlink" viewBox="0 0 113.05 38.96"><defs><style>.cls-1{fill:none;}.cls-2{clip-path:url(#clip-path);}.cls-3{fill:#fff;}.cls-4{clip-path:url(#clip-path-2);}.cls-5{fill:#007bc4;}</style><clipPath id="clip-path" transform="translate(0 0)"><rect class="cls-1" width="113.05" height="38.96"/></clipPath><clipPath id="clip-path-2" transform="translate(0 0)"><rect class="cls-1" x="32.36" y="0.69" width="72.98" height="34.76"/></clipPath></defs><g id="Ebene_2" data-name="Ebene 2"><g id="Ebene_1-2" data-name="Ebene 1"><g class="cls-2"><path class="cls-3" d="M32.14,39a12.3,12.3,0,0,1-10.52-5.81L0,0H113.05L91.9,33.14S87.4,39,81,39Z" transform="translate(0 0)"/></g><g class="cls-4"><path class="cls-5" d="M65.62,6c3.07,4.68,6.22,9.29,9.33,14a8.75,8.75,0,0,0,1.33,1.79,1.73,1.73,0,0,0,1.89,0,4.92,4.92,0,0,0,1-1.28c3.61-5.55,7.31-11,10.94-16.58l2-2.88,13.22,0C101.19,7.25,87.85,27.74,86.15,30.3a11.22,11.22,0,0,1-11.07,4.24,11.66,11.66,0,0,1-7.34-5L57.62,14.33A1.75,1.75,0,0,0,56,13.76a1.87,1.87,0,0,0-1.15.86c-.4.61-1.76,3-1.76,3H59l6.66,10h-33l14.65-22A11.21,11.21,0,0,1,57.24,1a11.43,11.43,0,0,1,8.38,5" transform="translate(0 0)"/><path class="cls-5" d="M55.71,33.82h-.85l-3.75-5.59h.83l3.32,4.92c0,.06.08,0,.08,0l3.35-4.94h.8Z" transform="translate(0 0)"/><path class="cls-5" d="M46,34.1c.45,0,.9,0,1.34-.06A3,3,0,0,0,50,32.49a7.84,7.84,0,0,0,.17-2.34V28.22h-.79v3.57a1.64,1.64,0,0,1-.6,1.16A5,5,0,0,1,46,33.6h0A5,5,0,0,1,43.23,33a1.64,1.64,0,0,1-.6-1.16V28.22h-.79v1.93A8.19,8.19,0,0,0,42,32.49,3,3,0,0,0,44.68,34c.44,0,.89.06,1.34.06Z" transform="translate(0 0)"/><path class="cls-5" d="M62.67,28.22h-.85l-4,5.57h.76l1-1.45,5.28,0L66,33.84h.78Zm1.74,3.57c-.29,0-4.25,0-4.25,0s0,0,0-.11l2-2.87c.06,0,.15,0,.17,0l2.08,2.88s.12.09,0,.11" transform="translate(0 0)"/><path class="cls-5" d="M37.2,28.32h-.85l-4,5.58h.76l1-1.44h5.28l1.09,1.42h.78Zm1.74,3.56H34.69c-.1-.06,0,0,0-.11l2.05-2.88c.06,0,.15,0,.17,0L39,31.78s.12.09,0,.1" transform="translate(0 0)"/><path class="cls-5" d="M73.87,2.29H68.81a2.48,2.48,0,0,0,.73,1A2.35,2.35,0,0,0,71,3.47l2-.14.9-.06s0-.33,0-.5.05-.48.05-.48" transform="translate(0 0)"/><path class="cls-5" d="M73.82,3.39l-3.58.29a1.13,1.13,0,0,1-.57,0c.14.36.4.31.74.3s3.41-.38,3.41-.38Z" transform="translate(0 0)"/><path class="cls-5" d="M73.81,3.69l-1.76.24-1.76.24-.18,0-.11,0a2.9,2.9,0,0,0,.73,1,1.32,1.32,0,0,0,1.3.09l1.36-.51L74,4.49s-.07-.29-.08-.39l-.06-.41" transform="translate(0 0)"/><path class="cls-5" d="M74,4.63,71.51,5.7a.86.86,0,0,1-.45,0c.21.29.44.29.76.14l2.22-1Z" transform="translate(0 0)"/><path class="cls-5" d="M74,5.05l-1.06.58-1.11.61a1,1,0,0,1-.18.07h-.12A1.38,1.38,0,0,0,72,7,1,1,0,0,0,73.1,7l.73-.66.73-.66-.28-.35A2.67,2.67,0,0,1,74.09,5Z" transform="translate(0 0)"/><path class="cls-5" d="M74.66,5.75,72.79,7.46a.55.55,0,0,1-.43.16c.27.29.68,0,.79-.11s1.64-1.64,1.64-1.64Z" transform="translate(0 0)"/><path class="cls-5" d="M80.8,2.28l5.13,0c-.52,1-.8,1.26-2.23,1.16l-2.83-.18s0-.38,0-.53,0-.43,0-.43" transform="translate(0 0)"/><path class="cls-5" d="M80.87,3.36l3.53.27a1.31,1.31,0,0,0,.58,0c-.15.35-.4.3-.75.29s-3.36-.34-3.36-.34Z" transform="translate(0 0)"/><path class="cls-5" d="M80.87,3.68l3.49.44c.16,0,.24,0,.28,0-.39.71-.81,1.46-2,1s-1.88-.68-1.88-.68.07-.27.09-.42,0-.38,0-.38" transform="translate(0 0)"/><path class="cls-5" d="M80.71,4.61l2.44,1a.75.75,0,0,0,.45,0c-.2.28-.44.29-.76.14l-2.2-1Z" transform="translate(0 0)"/><path class="cls-5" d="M80.57,4.94l2.34,1.27c.13.08.16.08.26.06a1.09,1.09,0,0,1-1.6.64L80.1,5.61a2.16,2.16,0,0,0,.47-.67" transform="translate(0 0)"/><path class="cls-5" d="M80,5.72l1.88,1.7a.57.57,0,0,0,.43.16c-.27.3-.68,0-.79-.11s-1.65-1.62-1.65-1.62Z" transform="translate(0 0)"/><path class="cls-5" d="M80.15,8.81,80,8.5a.42.42,0,0,1,.18,0l0,.1Z" transform="translate(0 0)"/><path class="cls-5" d="M80.76,8.61c.52.27,1,0,1.3-.58-.09,0-.19,0-.38-.17l-1.9-1.93a1.93,1.93,0,0,1-.72.32l.82,1.3H79.7L79,6.27s0,.05-.22.05l.71,1.21h-.1v.21l-.79-1.47,0,1.35s.56,1.23.94,2.1c.17.39,1.11.53,1.35.16a1.73,1.73,0,0,1-.38-.24V9.26a.64.64,0,0,0,.67.16c-.17,0-.44-.24-.64-.49l0,0,0-.3Zm-.68-.15h0l-.57,0,0-.78,1.61.06,0,.79-.94,0Zm0,.61-.26-.51.28,0Zm.31-.48L80.32,10s-.15,0-.17,0h0l0-1.44h.17Z" transform="translate(0 0)"/><path class="cls-5" d="M75.88,12.76l0-.82-.22,0v-.2h.2l0-.82h-.25v-.14h-.22v.14h-.24l0,.81.27,0v.18h-.23l0,.85.27,0v.15h-.27v.44h.2V13.1h.07v.1h.19v-.09h.11v.26h.15l0-.44h-.24v-.17ZM75.4,11.5l0-.42h.06v.09h.16v-.08h.07l0,.42h-.06v-.07l-.16,0v.08Zm.22,1v-.08h-.16v.07h-.07l0-.43.06,0v.07h.16v-.08h.07l0,.43Z" transform="translate(0 0)"/><path class="cls-5" d="M76.09,6.29,74.63,9h-.25L76,6.29h-.22L75,7.47l-.12-.07.7-1.11A2.46,2.46,0,0,1,74.93,6L73,7.9c-.18.16-.3.21-.38.17a1.43,1.43,0,0,0,.36.45,1.17,1.17,0,0,0,1.14,1.16.46.46,0,0,1-.26.19.76.76,0,0,0,1.29-.06c.39-.8,1-2.18,1-2.18ZM73.87,8.71a.14.14,0,0,0,0-.06,1.42,1.42,0,0,0,.57-.46l.36-.53h.14l-.74,1.26V9a.49.49,0,0,1-.3-.24m-.25-1.3h0ZM73.07,8.6c-.11-.75.62-1.71,1.92-1v0c-.64-.06-1.27,0-1.36.76-.06.57.55.83,1.12.79l.13.32a1.25,1.25,0,0,1-1.8-.84m1.28,1.48,0-.37h.24l0,.39Z" transform="translate(0 0)"/><path class="cls-5" d="M74.14,10.92c.1.5.59.48.64,0Zm.33.27c-.12,0-.16-.19-.16-.19l.29,0s0,.16-.13.16" transform="translate(0 0)"/><path class="cls-5" d="M79.84,10.16c-.27,0-.41-.07-.44-.14l0,0a7.59,7.59,0,0,1-.83-1.91l0-.23,0-1.7c1.51-.26,2.26-1.25,2-3.87l-.53,0c-.32,0-.7.28-.49,1.06a1.71,1.71,0,0,1-.8,2,3.83,3.83,0,0,1-.7.13,1.49,1.49,0,0,1,.24-.88.71.71,0,0,0,.66.15,1.3,1.3,0,0,1-.42-.91c0-.43,0-.37,0-.5S79,3.61,79,4c.28,0,.48-.85-.11-1.16a.7.7,0,0,0,.4-1,.82.82,0,0,1-.86.52c.26-.1.17-.37.15-.49-.17,0-.28.16-.5.14l.16-.94h-.41v.42h-.06V1.05h-.44v.42h-.07V1.05h-.45l.09.91-.15.13h-.28c-.28,0-.54.6,0,.83,0-.16.08-.23.27-.14A1.4,1.4,0,0,1,77,3L76,3c-.17,0-.21-.23-.17-.25-.18.07-.24.3.07.42l1,0a.33.33,0,0,1-.37.07c0,.21.55.31.82.26s.34.39,0,.58a1.45,1.45,0,0,1-1,.31c0,.2.36.28.5.38-.24.09-.37.47-.41.65a1.74,1.74,0,0,1-.9-.27A2,2,0,0,1,75,3.29c.1-1.16-.32-1-1-1-.23,2.11.27,3.63,2,3.93a6.37,6.37,0,0,0,0,1.72l-.7,1.81c0,.15,0,.14-.11.23a.21.21,0,0,0,.13.11l-.54.12v-.1l-.8,0v.85l.78,0,0-.22,1.08,0c.37,0,.43-.44.46-.58.09,0,.12,0,.18-.05l-.54,2c.39.31.63.1.72-.15L77,10.92l-.17,2.31,1,0-.17-2.32.25,1c.14.67.53.34.75.28l-.55-2,.2.08c0,.44.3.53.68.55v.07h-.23l0,.87H79v.15l-.24,0,0,.88h.29v.18l-.27,0v.43H79V13.1h.09v.07h.17V13.1h.09l0,.24h.19v-.43l-.27,0v-.14h.25l0-.87h-.26v-.16h.22l0-.86h-.24v-.09l.58,0A.16.16,0,0,0,80,11c0,.1,0,.31.24.32s.27-.2.28-.33a.14.14,0,0,0,.16-.16l0-.74-.83,0Zm-5.17.71h-.44v-.68l.45,0Zm3.22-5.22h.23v1h-.23Zm-1.11,1h-.21v-1h.21Zm.23-1h.2v1H77Zm.43,0h.22v1h-.22ZM77.94,2H77V1.87h.93Zm0-.78H78v.05H77.9Zm0,.17H78v.11h-.12Zm-.46-.17h.13v0h-.14Zm.13.28h-.13V1.36h.13Zm.4.24H77V1.65h1Zm-.88-.24H77V1.36h.12Zm-.15-.3h.12v.06h-.12ZM77,2.32c0,.09.18.09.18,0l.1,0a.2.2,0,0,1-.38,0Zm.12,1c.09-.2.28-.18.5-.11a4.3,4.3,0,0,0-.84-.61.28.28,0,0,0-.43.07c-.1-.1-.12-.41.09-.41l.29,0c.09.41.67.32.69,0h.07l-.07.36a.69.69,0,0,1,.36.89c-.06-.22-.32-.33-.66-.29M76.34,6.7h-.17v-1h.17Zm-.51,3.87-1,0,0-.1.77-.28.46.2h0c-.09.19-.13.22-.29.21m.35-3h.17v.57a1.41,1.41,0,0,1-.17-.57m.37.84h0V7.54h.21v1a1.08,1.08,0,0,1-.24-.18m.44.26V7.54h.22V8.69a.87.87,0,0,1-.22,0m.47-1.1h.18V8.66l-.18,0Zm.43,1v-1h.23v.87a1.19,1.19,0,0,1-.23.16m.45-.43v-.6h.19a1.33,1.33,0,0,1-.19.6m.19-.74v0H76.18s0,0,0,0V6.82h2.36V6.7h-.19v-1h.19Zm.77,4.69v.43h-.07v-.08h-.16v.08H79v-.42h.06v.07h.16v-.08Zm0-1v.42h-.07v-.07h-.16v.07H79v-.42h.06v.09h.16V11.1Zm-.42-.57c-.17,0-.2,0-.28-.22v0l.48-.18.75.32,0,.1Zm1.44.66c-.1.11-.18,0-.18,0V11h.24Zm-.26-1,.48,0,0,.64-.48,0Z" transform="translate(0 0)"/></g></g></g></svg>