<svg xmlns="http://www.w3.org/2000/svg" xmlns:xlink="http://www.w3.org/1999/xlink" width="106.628" height="114.503" viewBox="0 0 106.628 114.503"><defs><style>.a{fill:url(#a);}.b{filter:url(#b);}</style><linearGradient id="a" x1="0.5" x2="0.5" y2="1" gradientUnits="objectBoundingBox"><stop offset="0" stop-color="#dadada"/><stop offset="1" stop-color="#b6b6b6"/></linearGradient><filter id="b" x="0" y="0" width="106.628" height="114.503" filterUnits="userSpaceOnUse"><feOffset dy="3" input="SourceAlpha"/><feGaussianBlur stdDeviation="5" result="c"/><feFlood flood-opacity="0.255"/><feComposite operator="in" in2="c"/><feComposite in="SourceGraphic"/></filter></defs><g transform="translate(-129.186 -4030.998)"><g class="b" transform="matrix(1, 0, 0, 1, 129.19, 4031)"><path class="a" d="M78.246,39a43.58,43.58,0,0,1-1.4,9.452,27.353,27.353,0,0,1-3.675,8.3,19.393,19.393,0,0,1-6.231,5.9,17.585,17.585,0,0,1-9.1,2.244,13.189,13.189,0,0,1-6.579-1.611,11.267,11.267,0,0,1-4.446-4.557,14.093,14.093,0,0,1-11.923,5.988,12.124,12.124,0,0,1-10.408-5.6,18.323,18.323,0,0,1-2.587-6.484,27.965,27.965,0,0,1-.338-8.459,39.3,39.3,0,0,1,2.577-10.36A28.16,28.16,0,0,1,28.9,25.879a20.149,20.149,0,0,1,6.548-5.059,18.27,18.27,0,0,1,7.963-1.769,24.76,24.76,0,0,1,4.763.407,19.5,19.5,0,0,1,3.7,1.109,19.988,19.988,0,0,1,3.063,1.616c.935.6,1.875,1.225,2.809,1.859L55.424,50.655a8.846,8.846,0,0,0,.069,3.115,4.359,4.359,0,0,0,.95,1.922,3.421,3.421,0,0,0,1.542,1A5.724,5.724,0,0,0,63.4,55.629a11.547,11.547,0,0,0,2.9-3.7,23.806,23.806,0,0,0,1.954-5.555,38.115,38.115,0,0,0,.855-6.917,44.207,44.207,0,0,0-1.088-12.927,25.694,25.694,0,0,0-4.784-10,22.215,22.215,0,0,0-8.575-6.442A31.125,31.125,0,0,0,42.175,7.8,27.585,27.585,0,0,0,29.819,10.5a28.351,28.351,0,0,0-9.389,7.467A35.833,35.833,0,0,0,14.284,29.2,50.614,50.614,0,0,0,11.7,43.189a46.532,46.532,0,0,0,1.32,14.278A25.788,25.788,0,0,0,18.234,67.7a21.771,21.771,0,0,0,8.839,6.146,33.907,33.907,0,0,0,12.2,2.038,41.778,41.778,0,0,0,8.005-.861c1.32-.264,2.572-.581,3.765-.929a28.337,28.337,0,0,0,3.242-1.162l1.674,7.53a18.582,18.582,0,0,1-3.628,1.8A34.918,34.918,0,0,1,48.042,83.5a41.837,41.837,0,0,1-8.956,1,46.965,46.965,0,0,1-16.327-2.63,30.05,30.05,0,0,1-11.9-7.826A32.866,32.866,0,0,1,3.713,61.126a55.116,55.116,0,0,1-2-17.938A54.705,54.705,0,0,1,5.149,25.974,42.6,42.6,0,0,1,13.418,12.3,37.681,37.681,0,0,1,26.033,3.274,39.5,39.5,0,0,1,42.371,0,41.234,41.234,0,0,1,58.2,2.836a30.79,30.79,0,0,1,11.427,7.973,32.722,32.722,0,0,1,6.78,12.319A47.105,47.105,0,0,1,78.246,39ZM32.9,44.176q-.5,5.885.929,8.908a4.776,4.776,0,0,0,4.594,3.01,5.074,5.074,0,0,0,1.574-.29,5.612,5.612,0,0,0,1.811-1.088A9.666,9.666,0,0,0,43.643,52.5a17.02,17.02,0,0,0,1.69-3.749l1.806-20.678a10.789,10.789,0,0,0-2.809-.37,9.713,9.713,0,0,0-4.673,1.072,9.251,9.251,0,0,0-3.311,3.147,18.482,18.482,0,0,0-2.2,5.175A43.9,43.9,0,0,0,32.9,44.171Z" transform="translate(13.33 12)"/></g></g></svg>
