<?xml version="1.0" encoding="utf-8"?>
<!-- Generator: Adobe Illustrator 25.4.1, SVG Export Plug-In . SVG Version: 6.00 Build 0)  -->
<svg version="1.1" id="Layer_1" xmlns="http://www.w3.org/2000/svg" xmlns:xlink="http://www.w3.org/1999/xlink" x="0px" y="0px"
	 viewBox="0 0 20.3 16.5" style="enable-background:new 0 0 20.3 16.5;" xml:space="preserve">
<style type="text/css">
	.st0{fill:#FFFFFF;}
</style>
<path id="Icon_awesome-twitter" class="st0" d="M18.2,4.1c0,0.2,0,0.4,0,0.5c0,6.5-5.2,11.8-11.7,11.8c-0.1,0-0.1,0-0.2,0
	c-2.3,0-4.5-0.6-6.4-1.9c0.3,0,0.7,0.1,1,0.1c1.9,0,3.7-0.6,5.2-1.8c-1.8,0-3.3-1.2-3.9-2.9c0.3,0,0.5,0.1,0.8,0.1
	c0.4,0,0.7-0.1,1.1-0.1C2.2,9.5,0.8,7.8,0.8,5.8V5.8C1.4,6.1,2,6.3,2.7,6.3C0.9,5.1,0.3,2.7,1.4,0.8C3.5,3.4,6.6,4.9,10,5.1
	C9.9,4.8,9.9,4.5,9.9,4.2C9.9,1.9,11.7,0,14,0c1.1,0,2.2,0.5,3,1.3c0.9-0.2,1.8-0.5,2.6-1c-0.3,1-1,1.8-1.8,2.3
	c0.8-0.1,1.6-0.3,2.4-0.6C19.7,2.8,19,3.5,18.2,4.1L18.2,4.1z"/>
</svg>
