<?xml version="1.0" encoding="utf-8"?>
<!-- Generator: Adobe Illustrator 25.2.3, SVG Export Plug-In . SVG Version: 6.00 Build 0)  -->
<svg version="1.1" id="Ebene_1" xmlns="http://www.w3.org/2000/svg" xmlns:xlink="http://www.w3.org/1999/xlink" x="0px" y="0px"
	 viewBox="0 0 19.3 16.1" style="enable-background:new 0 0 19.3 16.1;" xml:space="preserve">
<style type="text/css">
	.st0{fill:#484848;}
</style>
<path class="st0" d="M16,0H3.3c-1,0-1.7,0.8-1.7,1.7c0,0,0,0,0,0v12.7c0,1,0.8,1.7,1.7,1.7H16c1,0,1.7-0.8,1.7-1.7V1.7
	C17.7,0.8,16.9,0,16,0z M15.4,11.1l-0.5,2.3c-0.1,0.2-0.3,0.4-0.5,0.4C8.6,13.8,3.9,9.1,3.9,3.4c0-0.2,0.2-0.5,0.4-0.5l2.3-0.5
	c0,0,0.1,0,0.1,0c0.2,0,0.4,0.1,0.5,0.3l1.1,2.5c0,0.1,0,0.1,0,0.2c0,0.2-0.1,0.3-0.2,0.4L6.8,6.9c0.8,1.8,2.2,3.2,4,4l1.1-1.4
	c0.1-0.1,0.3-0.2,0.4-0.2c0.1,0,0.1,0,0.2,0l2.5,1.1c0.2,0.1,0.3,0.3,0.3,0.5C15.4,11,15.4,11,15.4,11.1L15.4,11.1z"/>
</svg>
