<svg xmlns="http://www.w3.org/2000/svg" xmlns:xlink="http://www.w3.org/1999/xlink" width="141" height="104" viewBox="0 0 141 104"><defs><style>.a{opacity:0.704;}.b{fill:#fff;}.c{fill:url(#c);}.d{fill:#989898;}.e{fill:none;stroke:#989898;stroke-linecap:round;stroke-width:5px;}.f{filter:url(#a);}</style><filter id="a" x="0" y="0" width="141" height="104" filterUnits="userSpaceOnUse"><feOffset dy="3" input="SourceAlpha"/><feGaussianBlur stdDeviation="5" result="b"/><feFlood flood-opacity="0.263"/><feComposite operator="in" in2="b"/><feComposite in="SourceGraphic"/></filter><linearGradient id="c" x1="0.5" x2="0.5" y2="1" gradientUnits="objectBoundingBox"><stop offset="0" stop-color="#ccc"/><stop offset="1" stop-color="#989898"/></linearGradient></defs><g class="a" transform="translate(15 -4036.25)"><g class="f" transform="matrix(1, 0, 0, 1, -15, 4036.25)"><path class="b" d="M92.5,70.75a9.238,9.238,0,0,0,9.2-9.25l.046-46.25A9.277,9.277,0,0,0,92.5,6h-74a9.277,9.277,0,0,0-9.25,9.25V61.5a9.277,9.277,0,0,0,9.25,9.25H0V80H111V70.75Z" transform="translate(15 6)"/></g><path class="c" d="M92.5,70.75a9.238,9.238,0,0,0,9.2-9.25l.046-46.25A9.277,9.277,0,0,0,92.5,6h-74a9.277,9.277,0,0,0-9.25,9.25V61.5a9.277,9.277,0,0,0,9.25,9.25H0V80H111V70.75Zm-74-55.5h74V61.5h-74Z" transform="translate(0 4042.25)"/><ellipse class="d" cx="14" cy="13.5" rx="14" ry="13.5" transform="translate(41.16 4071)"/><line class="e" x2="57" transform="translate(26.66 4066.5)"/><path class="b" d="M6.306,18.151.272,12.117a.928.928,0,0,1,0-1.313L1.585,9.491a.928.928,0,0,1,1.313,0l4.065,4.065L15.67,4.849a.928.928,0,0,1,1.313,0L18.3,6.162a.928.928,0,0,1,0,1.313L7.619,18.151A.928.928,0,0,1,6.306,18.151Z" transform="translate(45.877 4073.5)"/></g></svg>
