<?xml version="1.0" encoding="utf-8"?>
<!-- Generator: Adobe Illustrator 25.2.3, SVG Export Plug-In . SVG Version: 6.00 Build 0)  -->
<svg version="1.1" id="Ebene_1" xmlns="http://www.w3.org/2000/svg" xmlns:xlink="http://www.w3.org/1999/xlink" x="0px" y="0px"
	 viewBox="0 0 19.3 17.6" style="enable-background:new 0 0 19.3 17.6;" xml:space="preserve">
<style type="text/css">
	.st0{fill:#484848;}
</style>
<path class="st0" d="M9,17.2C4,10,3.1,9.3,3.1,6.6C3.1,3,6,0,9.7,0s6.6,3,6.6,6.6c0,2.7-0.9,3.4-5.9,10.6c-0.3,0.4-0.8,0.5-1.1,0.2
	C9.1,17.4,9,17.3,9,17.2L9,17.2z M9.7,9.3c1.5,0,2.7-1.2,2.7-2.8s-1.2-2.7-2.8-2.7c-1.5,0-2.7,1.2-2.7,2.7C6.9,8.1,8.1,9.3,9.7,9.3
	C9.7,9.3,9.7,9.3,9.7,9.3z"/>
</svg>
